<mxfile host="app.diagrams.net" modified="2024-05-11T16:05:48.168Z" agent="Mozilla/5.0 (Windows NT 10.0; Win64; x64) AppleWebKit/537.36 (KHTML, like Gecko) Chrome/123.0.0.0 Safari/537.36" etag="h6kBoA3dzRRKzNCnri1f" version="24.4.0" type="device">
  <diagram id="C5RBs43oDa-KdzZeNtuy" name="Page-1">
    <mxGraphModel dx="2200" dy="1110" grid="1" gridSize="10" guides="1" tooltips="1" connect="1" arrows="1" fold="1" page="1" pageScale="1" pageWidth="827" pageHeight="1169" math="0" shadow="0">
      <root>
        <mxCell id="WIyWlLk6GJQsqaUBKTNV-0" />
        <mxCell id="WIyWlLk6GJQsqaUBKTNV-1" parent="WIyWlLk6GJQsqaUBKTNV-0" />
        <mxCell id="z_qak5FmhzV_KOLMtLeO-0" value="User" style="swimlane;fontStyle=1;align=center;verticalAlign=top;childLayout=stackLayout;horizontal=1;startSize=25.076923076923077;horizontalStack=0;resizeParent=1;resizeParentMax=0;resizeLast=0;collapsible=0;marginBottom=0;" vertex="1" parent="WIyWlLk6GJQsqaUBKTNV-1">
          <mxGeometry x="772" y="520" width="379" height="333.0769230769231" as="geometry" />
        </mxCell>
        <mxCell id="z_qak5FmhzV_KOLMtLeO-1" value="+id: UUID" style="text;strokeColor=none;fillColor=none;align=left;verticalAlign=top;spacingLeft=4;spacingRight=4;overflow=hidden;rotatable=0;points=[[0,0.5],[1,0.5]];portConstraint=eastwest;" vertex="1" parent="z_qak5FmhzV_KOLMtLeO-0">
          <mxGeometry y="25.076923076923077" width="379" height="25" as="geometry" />
        </mxCell>
        <mxCell id="z_qak5FmhzV_KOLMtLeO-2" value="+name: string" style="text;strokeColor=none;fillColor=none;align=left;verticalAlign=top;spacingLeft=4;spacingRight=4;overflow=hidden;rotatable=0;points=[[0,0.5],[1,0.5]];portConstraint=eastwest;" vertex="1" parent="z_qak5FmhzV_KOLMtLeO-0">
          <mxGeometry y="50.07692307692308" width="379" height="25" as="geometry" />
        </mxCell>
        <mxCell id="z_qak5FmhzV_KOLMtLeO-3" value="+email: string" style="text;strokeColor=none;fillColor=none;align=left;verticalAlign=top;spacingLeft=4;spacingRight=4;overflow=hidden;rotatable=0;points=[[0,0.5],[1,0.5]];portConstraint=eastwest;" vertex="1" parent="z_qak5FmhzV_KOLMtLeO-0">
          <mxGeometry y="75.07692307692308" width="379" height="25" as="geometry" />
        </mxCell>
        <mxCell id="z_qak5FmhzV_KOLMtLeO-4" value="+password: string" style="text;strokeColor=none;fillColor=none;align=left;verticalAlign=top;spacingLeft=4;spacingRight=4;overflow=hidden;rotatable=0;points=[[0,0.5],[1,0.5]];portConstraint=eastwest;" vertex="1" parent="z_qak5FmhzV_KOLMtLeO-0">
          <mxGeometry y="100.07692307692308" width="379" height="25" as="geometry" />
        </mxCell>
        <mxCell id="z_qak5FmhzV_KOLMtLeO-5" value="+createdAt: datetime" style="text;strokeColor=none;fillColor=none;align=left;verticalAlign=top;spacingLeft=4;spacingRight=4;overflow=hidden;rotatable=0;points=[[0,0.5],[1,0.5]];portConstraint=eastwest;" vertex="1" parent="z_qak5FmhzV_KOLMtLeO-0">
          <mxGeometry y="125.07692307692308" width="379" height="25" as="geometry" />
        </mxCell>
        <mxCell id="z_qak5FmhzV_KOLMtLeO-6" value="+updatedAt: datetime" style="text;strokeColor=none;fillColor=none;align=left;verticalAlign=top;spacingLeft=4;spacingRight=4;overflow=hidden;rotatable=0;points=[[0,0.5],[1,0.5]];portConstraint=eastwest;" vertex="1" parent="z_qak5FmhzV_KOLMtLeO-0">
          <mxGeometry y="150.0769230769231" width="379" height="25" as="geometry" />
        </mxCell>
        <mxCell id="z_qak5FmhzV_KOLMtLeO-7" value="+expenses: Expense[]" style="text;strokeColor=none;fillColor=none;align=left;verticalAlign=top;spacingLeft=4;spacingRight=4;overflow=hidden;rotatable=0;points=[[0,0.5],[1,0.5]];portConstraint=eastwest;" vertex="1" parent="z_qak5FmhzV_KOLMtLeO-0">
          <mxGeometry y="175.0769230769231" width="379" height="25" as="geometry" />
        </mxCell>
        <mxCell id="z_qak5FmhzV_KOLMtLeO-8" value="+budgets: Budget[]" style="text;strokeColor=none;fillColor=none;align=left;verticalAlign=top;spacingLeft=4;spacingRight=4;overflow=hidden;rotatable=0;points=[[0,0.5],[1,0.5]];portConstraint=eastwest;" vertex="1" parent="z_qak5FmhzV_KOLMtLeO-0">
          <mxGeometry y="200.0769230769231" width="379" height="25" as="geometry" />
        </mxCell>
        <mxCell id="z_qak5FmhzV_KOLMtLeO-9" value="+reports: Report[]" style="text;strokeColor=none;fillColor=none;align=left;verticalAlign=top;spacingLeft=4;spacingRight=4;overflow=hidden;rotatable=0;points=[[0,0.5],[1,0.5]];portConstraint=eastwest;" vertex="1" parent="z_qak5FmhzV_KOLMtLeO-0">
          <mxGeometry y="225.0769230769231" width="379" height="25" as="geometry" />
        </mxCell>
        <mxCell id="z_qak5FmhzV_KOLMtLeO-10" style="line;strokeWidth=1;fillColor=none;align=left;verticalAlign=middle;spacingTop=-1;spacingLeft=3;spacingRight=3;rotatable=0;labelPosition=right;points=[];portConstraint=eastwest;strokeColor=inherit;" vertex="1" parent="z_qak5FmhzV_KOLMtLeO-0">
          <mxGeometry y="250.0769230769231" width="379" height="8" as="geometry" />
        </mxCell>
        <mxCell id="z_qak5FmhzV_KOLMtLeO-11" value="+createExpense(expense: Expense): void" style="text;strokeColor=none;fillColor=none;align=left;verticalAlign=top;spacingLeft=4;spacingRight=4;overflow=hidden;rotatable=0;points=[[0,0.5],[1,0.5]];portConstraint=eastwest;" vertex="1" parent="z_qak5FmhzV_KOLMtLeO-0">
          <mxGeometry y="258.0769230769231" width="379" height="25" as="geometry" />
        </mxCell>
        <mxCell id="z_qak5FmhzV_KOLMtLeO-12" value="+createBudget(budget: Budget): void" style="text;strokeColor=none;fillColor=none;align=left;verticalAlign=top;spacingLeft=4;spacingRight=4;overflow=hidden;rotatable=0;points=[[0,0.5],[1,0.5]];portConstraint=eastwest;" vertex="1" parent="z_qak5FmhzV_KOLMtLeO-0">
          <mxGeometry y="283.0769230769231" width="379" height="25" as="geometry" />
        </mxCell>
        <mxCell id="z_qak5FmhzV_KOLMtLeO-13" value="+generateReport(reportType: ReportType): Report" style="text;strokeColor=none;fillColor=none;align=left;verticalAlign=top;spacingLeft=4;spacingRight=4;overflow=hidden;rotatable=0;points=[[0,0.5],[1,0.5]];portConstraint=eastwest;" vertex="1" parent="z_qak5FmhzV_KOLMtLeO-0">
          <mxGeometry y="308.0769230769231" width="379" height="25" as="geometry" />
        </mxCell>
        <mxCell id="z_qak5FmhzV_KOLMtLeO-14" value="Expense" style="swimlane;fontStyle=1;align=center;verticalAlign=top;childLayout=stackLayout;horizontal=1;startSize=25.454545454545453;horizontalStack=0;resizeParent=1;resizeParentMax=0;resizeLast=0;collapsible=0;marginBottom=0;" vertex="1" parent="WIyWlLk6GJQsqaUBKTNV-1">
          <mxGeometry x="120" y="904" width="472" height="283.45454545454544" as="geometry" />
        </mxCell>
        <mxCell id="z_qak5FmhzV_KOLMtLeO-15" value="+id: UUID" style="text;strokeColor=none;fillColor=none;align=left;verticalAlign=top;spacingLeft=4;spacingRight=4;overflow=hidden;rotatable=0;points=[[0,0.5],[1,0.5]];portConstraint=eastwest;" vertex="1" parent="z_qak5FmhzV_KOLMtLeO-14">
          <mxGeometry y="25.454545454545453" width="472" height="25" as="geometry" />
        </mxCell>
        <mxCell id="z_qak5FmhzV_KOLMtLeO-16" value="+name: string" style="text;strokeColor=none;fillColor=none;align=left;verticalAlign=top;spacingLeft=4;spacingRight=4;overflow=hidden;rotatable=0;points=[[0,0.5],[1,0.5]];portConstraint=eastwest;" vertex="1" parent="z_qak5FmhzV_KOLMtLeO-14">
          <mxGeometry y="50.45454545454545" width="472" height="25" as="geometry" />
        </mxCell>
        <mxCell id="z_qak5FmhzV_KOLMtLeO-17" value="+amount: decimal" style="text;strokeColor=none;fillColor=none;align=left;verticalAlign=top;spacingLeft=4;spacingRight=4;overflow=hidden;rotatable=0;points=[[0,0.5],[1,0.5]];portConstraint=eastwest;" vertex="1" parent="z_qak5FmhzV_KOLMtLeO-14">
          <mxGeometry y="75.45454545454545" width="472" height="25" as="geometry" />
        </mxCell>
        <mxCell id="z_qak5FmhzV_KOLMtLeO-18" value="+date: datetime" style="text;strokeColor=none;fillColor=none;align=left;verticalAlign=top;spacingLeft=4;spacingRight=4;overflow=hidden;rotatable=0;points=[[0,0.5],[1,0.5]];portConstraint=eastwest;" vertex="1" parent="z_qak5FmhzV_KOLMtLeO-14">
          <mxGeometry y="100.45454545454545" width="472" height="25" as="geometry" />
        </mxCell>
        <mxCell id="z_qak5FmhzV_KOLMtLeO-19" value="+category: ExpenseCategory" style="text;strokeColor=none;fillColor=none;align=left;verticalAlign=top;spacingLeft=4;spacingRight=4;overflow=hidden;rotatable=0;points=[[0,0.5],[1,0.5]];portConstraint=eastwest;" vertex="1" parent="z_qak5FmhzV_KOLMtLeO-14">
          <mxGeometry y="125.45454545454545" width="472" height="25" as="geometry" />
        </mxCell>
        <mxCell id="z_qak5FmhzV_KOLMtLeO-20" value="+user: User" style="text;strokeColor=none;fillColor=none;align=left;verticalAlign=top;spacingLeft=4;spacingRight=4;overflow=hidden;rotatable=0;points=[[0,0.5],[1,0.5]];portConstraint=eastwest;" vertex="1" parent="z_qak5FmhzV_KOLMtLeO-14">
          <mxGeometry y="150.45454545454544" width="472" height="25" as="geometry" />
        </mxCell>
        <mxCell id="z_qak5FmhzV_KOLMtLeO-21" value="+createdAt: datetime" style="text;strokeColor=none;fillColor=none;align=left;verticalAlign=top;spacingLeft=4;spacingRight=4;overflow=hidden;rotatable=0;points=[[0,0.5],[1,0.5]];portConstraint=eastwest;" vertex="1" parent="z_qak5FmhzV_KOLMtLeO-14">
          <mxGeometry y="175.45454545454544" width="472" height="25" as="geometry" />
        </mxCell>
        <mxCell id="z_qak5FmhzV_KOLMtLeO-22" value="+updatedAt: datetime" style="text;strokeColor=none;fillColor=none;align=left;verticalAlign=top;spacingLeft=4;spacingRight=4;overflow=hidden;rotatable=0;points=[[0,0.5],[1,0.5]];portConstraint=eastwest;" vertex="1" parent="z_qak5FmhzV_KOLMtLeO-14">
          <mxGeometry y="200.45454545454544" width="472" height="25" as="geometry" />
        </mxCell>
        <mxCell id="z_qak5FmhzV_KOLMtLeO-23" style="line;strokeWidth=1;fillColor=none;align=left;verticalAlign=middle;spacingTop=-1;spacingLeft=3;spacingRight=3;rotatable=0;labelPosition=right;points=[];portConstraint=eastwest;strokeColor=inherit;" vertex="1" parent="z_qak5FmhzV_KOLMtLeO-14">
          <mxGeometry y="225.45454545454544" width="472" height="8" as="geometry" />
        </mxCell>
        <mxCell id="z_qak5FmhzV_KOLMtLeO-24" value="+setCategory(category: ExpenseCategory): void" style="text;strokeColor=none;fillColor=none;align=left;verticalAlign=top;spacingLeft=4;spacingRight=4;overflow=hidden;rotatable=0;points=[[0,0.5],[1,0.5]];portConstraint=eastwest;" vertex="1" parent="z_qak5FmhzV_KOLMtLeO-14">
          <mxGeometry y="233.45454545454544" width="472" height="25" as="geometry" />
        </mxCell>
        <mxCell id="z_qak5FmhzV_KOLMtLeO-25" value="+update(name: string, amount: decimal, date: datetime): void" style="text;strokeColor=none;fillColor=none;align=left;verticalAlign=top;spacingLeft=4;spacingRight=4;overflow=hidden;rotatable=0;points=[[0,0.5],[1,0.5]];portConstraint=eastwest;" vertex="1" parent="z_qak5FmhzV_KOLMtLeO-14">
          <mxGeometry y="258.45454545454544" width="472" height="25" as="geometry" />
        </mxCell>
        <mxCell id="z_qak5FmhzV_KOLMtLeO-26" value="RecurringExpense" style="swimlane;fontStyle=1;align=center;verticalAlign=top;childLayout=stackLayout;horizontal=1;startSize=29.2;horizontalStack=0;resizeParent=1;resizeParentMax=0;resizeLast=0;collapsible=0;marginBottom=0;" vertex="1" parent="WIyWlLk6GJQsqaUBKTNV-1">
          <mxGeometry x="174" y="647" width="150" height="73.2" as="geometry" />
        </mxCell>
        <mxCell id="z_qak5FmhzV_KOLMtLeO-27" value="+frequency: string" style="text;strokeColor=none;fillColor=none;align=left;verticalAlign=top;spacingLeft=4;spacingRight=4;overflow=hidden;rotatable=0;points=[[0,0.5],[1,0.5]];portConstraint=eastwest;" vertex="1" parent="z_qak5FmhzV_KOLMtLeO-26">
          <mxGeometry y="29.2" width="150" height="29" as="geometry" />
        </mxCell>
        <mxCell id="z_qak5FmhzV_KOLMtLeO-28" style="line;strokeWidth=1;fillColor=none;align=left;verticalAlign=middle;spacingTop=-1;spacingLeft=3;spacingRight=3;rotatable=0;labelPosition=right;points=[];portConstraint=eastwest;strokeColor=inherit;" vertex="1" parent="z_qak5FmhzV_KOLMtLeO-26">
          <mxGeometry y="58.2" width="150" height="15" as="geometry" />
        </mxCell>
        <mxCell id="z_qak5FmhzV_KOLMtLeO-29" value="OnceOffExpense" style="swimlane;fontStyle=1;align=center;verticalAlign=top;childLayout=stackLayout;horizontal=1;startSize=25;horizontalStack=0;resizeParent=1;resizeParentMax=0;resizeLast=0;collapsible=0;marginBottom=0;" vertex="1" parent="WIyWlLk6GJQsqaUBKTNV-1">
          <mxGeometry x="374" y="658" width="138" height="38" as="geometry" />
        </mxCell>
        <mxCell id="z_qak5FmhzV_KOLMtLeO-30" style="line;strokeWidth=1;fillColor=none;align=left;verticalAlign=middle;spacingTop=-1;spacingLeft=3;spacingRight=3;rotatable=0;labelPosition=right;points=[];portConstraint=eastwest;strokeColor=inherit;" vertex="1" parent="z_qak5FmhzV_KOLMtLeO-29">
          <mxGeometry y="25" width="138" height="13" as="geometry" />
        </mxCell>
        <mxCell id="z_qak5FmhzV_KOLMtLeO-31" value="ExpenseCategory" style="swimlane;fontStyle=1;align=center;verticalAlign=top;childLayout=stackLayout;horizontal=1;startSize=26.857142857142858;horizontalStack=0;resizeParent=1;resizeParentMax=0;resizeLast=0;collapsible=0;marginBottom=0;" vertex="1" parent="WIyWlLk6GJQsqaUBKTNV-1">
          <mxGeometry x="1201" y="589" width="319" height="196.85714285714286" as="geometry" />
        </mxCell>
        <mxCell id="z_qak5FmhzV_KOLMtLeO-32" value="+id: UUID" style="text;strokeColor=none;fillColor=none;align=left;verticalAlign=top;spacingLeft=4;spacingRight=4;overflow=hidden;rotatable=0;points=[[0,0.5],[1,0.5]];portConstraint=eastwest;" vertex="1" parent="z_qak5FmhzV_KOLMtLeO-31">
          <mxGeometry y="26.857142857142858" width="319" height="27" as="geometry" />
        </mxCell>
        <mxCell id="z_qak5FmhzV_KOLMtLeO-33" value="+name: string" style="text;strokeColor=none;fillColor=none;align=left;verticalAlign=top;spacingLeft=4;spacingRight=4;overflow=hidden;rotatable=0;points=[[0,0.5],[1,0.5]];portConstraint=eastwest;" vertex="1" parent="z_qak5FmhzV_KOLMtLeO-31">
          <mxGeometry y="53.85714285714286" width="319" height="27" as="geometry" />
        </mxCell>
        <mxCell id="z_qak5FmhzV_KOLMtLeO-34" value="+icon: string" style="text;strokeColor=none;fillColor=none;align=left;verticalAlign=top;spacingLeft=4;spacingRight=4;overflow=hidden;rotatable=0;points=[[0,0.5],[1,0.5]];portConstraint=eastwest;" vertex="1" parent="z_qak5FmhzV_KOLMtLeO-31">
          <mxGeometry y="80.85714285714286" width="319" height="27" as="geometry" />
        </mxCell>
        <mxCell id="z_qak5FmhzV_KOLMtLeO-35" value="+expenses: Expense[]" style="text;strokeColor=none;fillColor=none;align=left;verticalAlign=top;spacingLeft=4;spacingRight=4;overflow=hidden;rotatable=0;points=[[0,0.5],[1,0.5]];portConstraint=eastwest;" vertex="1" parent="z_qak5FmhzV_KOLMtLeO-31">
          <mxGeometry y="107.85714285714286" width="319" height="27" as="geometry" />
        </mxCell>
        <mxCell id="z_qak5FmhzV_KOLMtLeO-36" style="line;strokeWidth=1;fillColor=none;align=left;verticalAlign=middle;spacingTop=-1;spacingLeft=3;spacingRight=3;rotatable=0;labelPosition=right;points=[];portConstraint=eastwest;strokeColor=inherit;" vertex="1" parent="z_qak5FmhzV_KOLMtLeO-31">
          <mxGeometry y="134.85714285714286" width="319" height="8" as="geometry" />
        </mxCell>
        <mxCell id="z_qak5FmhzV_KOLMtLeO-37" value="+addExpense(expense: Expense): void" style="text;strokeColor=none;fillColor=none;align=left;verticalAlign=top;spacingLeft=4;spacingRight=4;overflow=hidden;rotatable=0;points=[[0,0.5],[1,0.5]];portConstraint=eastwest;" vertex="1" parent="z_qak5FmhzV_KOLMtLeO-31">
          <mxGeometry y="142.85714285714286" width="319" height="27" as="geometry" />
        </mxCell>
        <mxCell id="z_qak5FmhzV_KOLMtLeO-38" value="+removeExpense(expense: Expense): void" style="text;strokeColor=none;fillColor=none;align=left;verticalAlign=top;spacingLeft=4;spacingRight=4;overflow=hidden;rotatable=0;points=[[0,0.5],[1,0.5]];portConstraint=eastwest;" vertex="1" parent="z_qak5FmhzV_KOLMtLeO-31">
          <mxGeometry y="169.85714285714286" width="319" height="27" as="geometry" />
        </mxCell>
        <mxCell id="z_qak5FmhzV_KOLMtLeO-39" value="Budget" style="swimlane;fontStyle=1;align=center;verticalAlign=top;childLayout=stackLayout;horizontal=1;startSize=25.454545454545453;horizontalStack=0;resizeParent=1;resizeParentMax=0;resizeLast=0;collapsible=0;marginBottom=0;" vertex="1" parent="WIyWlLk6GJQsqaUBKTNV-1">
          <mxGeometry x="642" y="904" width="653" height="283.45454545454544" as="geometry" />
        </mxCell>
        <mxCell id="z_qak5FmhzV_KOLMtLeO-40" value="+id: UUID" style="text;strokeColor=none;fillColor=none;align=left;verticalAlign=top;spacingLeft=4;spacingRight=4;overflow=hidden;rotatable=0;points=[[0,0.5],[1,0.5]];portConstraint=eastwest;" vertex="1" parent="z_qak5FmhzV_KOLMtLeO-39">
          <mxGeometry y="25.454545454545453" width="653" height="25" as="geometry" />
        </mxCell>
        <mxCell id="z_qak5FmhzV_KOLMtLeO-41" value="+name: string" style="text;strokeColor=none;fillColor=none;align=left;verticalAlign=top;spacingLeft=4;spacingRight=4;overflow=hidden;rotatable=0;points=[[0,0.5],[1,0.5]];portConstraint=eastwest;" vertex="1" parent="z_qak5FmhzV_KOLMtLeO-39">
          <mxGeometry y="50.45454545454545" width="653" height="25" as="geometry" />
        </mxCell>
        <mxCell id="z_qak5FmhzV_KOLMtLeO-42" value="+amount: decimal" style="text;strokeColor=none;fillColor=none;align=left;verticalAlign=top;spacingLeft=4;spacingRight=4;overflow=hidden;rotatable=0;points=[[0,0.5],[1,0.5]];portConstraint=eastwest;" vertex="1" parent="z_qak5FmhzV_KOLMtLeO-39">
          <mxGeometry y="75.45454545454545" width="653" height="25" as="geometry" />
        </mxCell>
        <mxCell id="z_qak5FmhzV_KOLMtLeO-43" value="+startDate: datetime" style="text;strokeColor=none;fillColor=none;align=left;verticalAlign=top;spacingLeft=4;spacingRight=4;overflow=hidden;rotatable=0;points=[[0,0.5],[1,0.5]];portConstraint=eastwest;" vertex="1" parent="z_qak5FmhzV_KOLMtLeO-39">
          <mxGeometry y="100.45454545454545" width="653" height="25" as="geometry" />
        </mxCell>
        <mxCell id="z_qak5FmhzV_KOLMtLeO-44" value="+endDate: datetime" style="text;strokeColor=none;fillColor=none;align=left;verticalAlign=top;spacingLeft=4;spacingRight=4;overflow=hidden;rotatable=0;points=[[0,0.5],[1,0.5]];portConstraint=eastwest;" vertex="1" parent="z_qak5FmhzV_KOLMtLeO-39">
          <mxGeometry y="125.45454545454545" width="653" height="25" as="geometry" />
        </mxCell>
        <mxCell id="z_qak5FmhzV_KOLMtLeO-45" value="+user: User" style="text;strokeColor=none;fillColor=none;align=left;verticalAlign=top;spacingLeft=4;spacingRight=4;overflow=hidden;rotatable=0;points=[[0,0.5],[1,0.5]];portConstraint=eastwest;" vertex="1" parent="z_qak5FmhzV_KOLMtLeO-39">
          <mxGeometry y="150.45454545454544" width="653" height="25" as="geometry" />
        </mxCell>
        <mxCell id="z_qak5FmhzV_KOLMtLeO-46" value="+createdAt: datetime" style="text;strokeColor=none;fillColor=none;align=left;verticalAlign=top;spacingLeft=4;spacingRight=4;overflow=hidden;rotatable=0;points=[[0,0.5],[1,0.5]];portConstraint=eastwest;" vertex="1" parent="z_qak5FmhzV_KOLMtLeO-39">
          <mxGeometry y="175.45454545454544" width="653" height="25" as="geometry" />
        </mxCell>
        <mxCell id="z_qak5FmhzV_KOLMtLeO-47" value="+updatedAt: datetime" style="text;strokeColor=none;fillColor=none;align=left;verticalAlign=top;spacingLeft=4;spacingRight=4;overflow=hidden;rotatable=0;points=[[0,0.5],[1,0.5]];portConstraint=eastwest;" vertex="1" parent="z_qak5FmhzV_KOLMtLeO-39">
          <mxGeometry y="200.45454545454544" width="653" height="25" as="geometry" />
        </mxCell>
        <mxCell id="z_qak5FmhzV_KOLMtLeO-48" style="line;strokeWidth=1;fillColor=none;align=left;verticalAlign=middle;spacingTop=-1;spacingLeft=3;spacingRight=3;rotatable=0;labelPosition=right;points=[];portConstraint=eastwest;strokeColor=inherit;" vertex="1" parent="z_qak5FmhzV_KOLMtLeO-39">
          <mxGeometry y="225.45454545454544" width="653" height="8" as="geometry" />
        </mxCell>
        <mxCell id="z_qak5FmhzV_KOLMtLeO-49" value="+update(name: string, amount: decimal, startDate: datetime, endDate: datetime): void" style="text;strokeColor=none;fillColor=none;align=left;verticalAlign=top;spacingLeft=4;spacingRight=4;overflow=hidden;rotatable=0;points=[[0,0.5],[1,0.5]];portConstraint=eastwest;" vertex="1" parent="z_qak5FmhzV_KOLMtLeO-39">
          <mxGeometry y="233.45454545454544" width="653" height="25" as="geometry" />
        </mxCell>
        <mxCell id="z_qak5FmhzV_KOLMtLeO-50" value="+checkBudgetStatus(): boolean" style="text;strokeColor=none;fillColor=none;align=left;verticalAlign=top;spacingLeft=4;spacingRight=4;overflow=hidden;rotatable=0;points=[[0,0.5],[1,0.5]];portConstraint=eastwest;" vertex="1" parent="z_qak5FmhzV_KOLMtLeO-39">
          <mxGeometry y="258.45454545454544" width="653" height="25" as="geometry" />
        </mxCell>
        <mxCell id="z_qak5FmhzV_KOLMtLeO-51" value="Report" style="swimlane;fontStyle=1;align=center;verticalAlign=top;childLayout=stackLayout;horizontal=1;startSize=25.454545454545453;horizontalStack=0;resizeParent=1;resizeParentMax=0;resizeLast=0;collapsible=0;marginBottom=0;" vertex="1" parent="WIyWlLk6GJQsqaUBKTNV-1">
          <mxGeometry x="1637" y="904" width="174" height="283.45454545454544" as="geometry" />
        </mxCell>
        <mxCell id="z_qak5FmhzV_KOLMtLeO-52" value="+id: UUID" style="text;strokeColor=none;fillColor=none;align=left;verticalAlign=top;spacingLeft=4;spacingRight=4;overflow=hidden;rotatable=0;points=[[0,0.5],[1,0.5]];portConstraint=eastwest;" vertex="1" parent="z_qak5FmhzV_KOLMtLeO-51">
          <mxGeometry y="25.454545454545453" width="174" height="25" as="geometry" />
        </mxCell>
        <mxCell id="z_qak5FmhzV_KOLMtLeO-53" value="+name: string" style="text;strokeColor=none;fillColor=none;align=left;verticalAlign=top;spacingLeft=4;spacingRight=4;overflow=hidden;rotatable=0;points=[[0,0.5],[1,0.5]];portConstraint=eastwest;" vertex="1" parent="z_qak5FmhzV_KOLMtLeO-51">
          <mxGeometry y="50.45454545454545" width="174" height="25" as="geometry" />
        </mxCell>
        <mxCell id="z_qak5FmhzV_KOLMtLeO-54" value="+type: ReportType" style="text;strokeColor=none;fillColor=none;align=left;verticalAlign=top;spacingLeft=4;spacingRight=4;overflow=hidden;rotatable=0;points=[[0,0.5],[1,0.5]];portConstraint=eastwest;" vertex="1" parent="z_qak5FmhzV_KOLMtLeO-51">
          <mxGeometry y="75.45454545454545" width="174" height="25" as="geometry" />
        </mxCell>
        <mxCell id="z_qak5FmhzV_KOLMtLeO-55" value="+startDate: datetime" style="text;strokeColor=none;fillColor=none;align=left;verticalAlign=top;spacingLeft=4;spacingRight=4;overflow=hidden;rotatable=0;points=[[0,0.5],[1,0.5]];portConstraint=eastwest;" vertex="1" parent="z_qak5FmhzV_KOLMtLeO-51">
          <mxGeometry y="100.45454545454545" width="174" height="25" as="geometry" />
        </mxCell>
        <mxCell id="z_qak5FmhzV_KOLMtLeO-56" value="+endDate: datetime" style="text;strokeColor=none;fillColor=none;align=left;verticalAlign=top;spacingLeft=4;spacingRight=4;overflow=hidden;rotatable=0;points=[[0,0.5],[1,0.5]];portConstraint=eastwest;" vertex="1" parent="z_qak5FmhzV_KOLMtLeO-51">
          <mxGeometry y="125.45454545454545" width="174" height="25" as="geometry" />
        </mxCell>
        <mxCell id="z_qak5FmhzV_KOLMtLeO-57" value="+user: User" style="text;strokeColor=none;fillColor=none;align=left;verticalAlign=top;spacingLeft=4;spacingRight=4;overflow=hidden;rotatable=0;points=[[0,0.5],[1,0.5]];portConstraint=eastwest;" vertex="1" parent="z_qak5FmhzV_KOLMtLeO-51">
          <mxGeometry y="150.45454545454544" width="174" height="25" as="geometry" />
        </mxCell>
        <mxCell id="z_qak5FmhzV_KOLMtLeO-58" value="+createdAt: datetime" style="text;strokeColor=none;fillColor=none;align=left;verticalAlign=top;spacingLeft=4;spacingRight=4;overflow=hidden;rotatable=0;points=[[0,0.5],[1,0.5]];portConstraint=eastwest;" vertex="1" parent="z_qak5FmhzV_KOLMtLeO-51">
          <mxGeometry y="175.45454545454544" width="174" height="25" as="geometry" />
        </mxCell>
        <mxCell id="z_qak5FmhzV_KOLMtLeO-59" value="+updatedAt: datetime" style="text;strokeColor=none;fillColor=none;align=left;verticalAlign=top;spacingLeft=4;spacingRight=4;overflow=hidden;rotatable=0;points=[[0,0.5],[1,0.5]];portConstraint=eastwest;" vertex="1" parent="z_qak5FmhzV_KOLMtLeO-51">
          <mxGeometry y="200.45454545454544" width="174" height="25" as="geometry" />
        </mxCell>
        <mxCell id="z_qak5FmhzV_KOLMtLeO-60" style="line;strokeWidth=1;fillColor=none;align=left;verticalAlign=middle;spacingTop=-1;spacingLeft=3;spacingRight=3;rotatable=0;labelPosition=right;points=[];portConstraint=eastwest;strokeColor=inherit;" vertex="1" parent="z_qak5FmhzV_KOLMtLeO-51">
          <mxGeometry y="225.45454545454544" width="174" height="8" as="geometry" />
        </mxCell>
        <mxCell id="z_qak5FmhzV_KOLMtLeO-61" value="+generatePdf(): void" style="text;strokeColor=none;fillColor=none;align=left;verticalAlign=top;spacingLeft=4;spacingRight=4;overflow=hidden;rotatable=0;points=[[0,0.5],[1,0.5]];portConstraint=eastwest;" vertex="1" parent="z_qak5FmhzV_KOLMtLeO-51">
          <mxGeometry y="233.45454545454544" width="174" height="25" as="geometry" />
        </mxCell>
        <mxCell id="z_qak5FmhzV_KOLMtLeO-62" value="+generateCsv(): void" style="text;strokeColor=none;fillColor=none;align=left;verticalAlign=top;spacingLeft=4;spacingRight=4;overflow=hidden;rotatable=0;points=[[0,0.5],[1,0.5]];portConstraint=eastwest;" vertex="1" parent="z_qak5FmhzV_KOLMtLeO-51">
          <mxGeometry y="258.45454545454544" width="174" height="25" as="geometry" />
        </mxCell>
        <mxCell id="z_qak5FmhzV_KOLMtLeO-63" value="MonthlyReport" style="swimlane;fontStyle=1;align=center;verticalAlign=top;childLayout=stackLayout;horizontal=1;startSize=25;horizontalStack=0;resizeParent=1;resizeParentMax=0;resizeLast=0;collapsible=0;marginBottom=0;" vertex="1" parent="WIyWlLk6GJQsqaUBKTNV-1">
          <mxGeometry x="1570" y="658" width="127" height="38" as="geometry" />
        </mxCell>
        <mxCell id="z_qak5FmhzV_KOLMtLeO-64" style="line;strokeWidth=1;fillColor=none;align=left;verticalAlign=middle;spacingTop=-1;spacingLeft=3;spacingRight=3;rotatable=0;labelPosition=right;points=[];portConstraint=eastwest;strokeColor=inherit;" vertex="1" parent="z_qak5FmhzV_KOLMtLeO-63">
          <mxGeometry y="25" width="127" height="13" as="geometry" />
        </mxCell>
        <mxCell id="z_qak5FmhzV_KOLMtLeO-65" value="QuarterlyReport" style="swimlane;fontStyle=1;align=center;verticalAlign=top;childLayout=stackLayout;horizontal=1;startSize=25;horizontalStack=0;resizeParent=1;resizeParentMax=0;resizeLast=0;collapsible=0;marginBottom=0;" vertex="1" parent="WIyWlLk6GJQsqaUBKTNV-1">
          <mxGeometry x="1747" y="658" width="138" height="38" as="geometry" />
        </mxCell>
        <mxCell id="z_qak5FmhzV_KOLMtLeO-66" style="line;strokeWidth=1;fillColor=none;align=left;verticalAlign=middle;spacingTop=-1;spacingLeft=3;spacingRight=3;rotatable=0;labelPosition=right;points=[];portConstraint=eastwest;strokeColor=inherit;" vertex="1" parent="z_qak5FmhzV_KOLMtLeO-65">
          <mxGeometry y="25" width="138" height="13" as="geometry" />
        </mxCell>
        <mxCell id="z_qak5FmhzV_KOLMtLeO-67" value="YearlyReport" style="swimlane;fontStyle=1;align=center;verticalAlign=top;childLayout=stackLayout;horizontal=1;startSize=25;horizontalStack=0;resizeParent=1;resizeParentMax=0;resizeLast=0;collapsible=0;marginBottom=0;" vertex="1" parent="WIyWlLk6GJQsqaUBKTNV-1">
          <mxGeometry x="1935" y="658" width="113" height="38" as="geometry" />
        </mxCell>
        <mxCell id="z_qak5FmhzV_KOLMtLeO-68" style="line;strokeWidth=1;fillColor=none;align=left;verticalAlign=middle;spacingTop=-1;spacingLeft=3;spacingRight=3;rotatable=0;labelPosition=right;points=[];portConstraint=eastwest;strokeColor=inherit;" vertex="1" parent="z_qak5FmhzV_KOLMtLeO-67">
          <mxGeometry y="25" width="113" height="13" as="geometry" />
        </mxCell>
        <mxCell id="z_qak5FmhzV_KOLMtLeO-69" value="ReportType" style="swimlane;fontStyle=1;align=center;verticalAlign=top;childLayout=stackLayout;horizontal=1;startSize=26.857142857142858;horizontalStack=0;resizeParent=1;resizeParentMax=0;resizeLast=0;collapsible=0;marginBottom=0;" vertex="1" parent="WIyWlLk6GJQsqaUBKTNV-1">
          <mxGeometry x="2098" y="589" width="285" height="196.85714285714286" as="geometry" />
        </mxCell>
        <mxCell id="z_qak5FmhzV_KOLMtLeO-70" value="+id: UUID" style="text;strokeColor=none;fillColor=none;align=left;verticalAlign=top;spacingLeft=4;spacingRight=4;overflow=hidden;rotatable=0;points=[[0,0.5],[1,0.5]];portConstraint=eastwest;" vertex="1" parent="z_qak5FmhzV_KOLMtLeO-69">
          <mxGeometry y="26.857142857142858" width="285" height="27" as="geometry" />
        </mxCell>
        <mxCell id="z_qak5FmhzV_KOLMtLeO-71" value="+name: string" style="text;strokeColor=none;fillColor=none;align=left;verticalAlign=top;spacingLeft=4;spacingRight=4;overflow=hidden;rotatable=0;points=[[0,0.5],[1,0.5]];portConstraint=eastwest;" vertex="1" parent="z_qak5FmhzV_KOLMtLeO-69">
          <mxGeometry y="53.85714285714286" width="285" height="27" as="geometry" />
        </mxCell>
        <mxCell id="z_qak5FmhzV_KOLMtLeO-72" value="+description: string" style="text;strokeColor=none;fillColor=none;align=left;verticalAlign=top;spacingLeft=4;spacingRight=4;overflow=hidden;rotatable=0;points=[[0,0.5],[1,0.5]];portConstraint=eastwest;" vertex="1" parent="z_qak5FmhzV_KOLMtLeO-69">
          <mxGeometry y="80.85714285714286" width="285" height="27" as="geometry" />
        </mxCell>
        <mxCell id="z_qak5FmhzV_KOLMtLeO-73" value="+reports: Report[]" style="text;strokeColor=none;fillColor=none;align=left;verticalAlign=top;spacingLeft=4;spacingRight=4;overflow=hidden;rotatable=0;points=[[0,0.5],[1,0.5]];portConstraint=eastwest;" vertex="1" parent="z_qak5FmhzV_KOLMtLeO-69">
          <mxGeometry y="107.85714285714286" width="285" height="27" as="geometry" />
        </mxCell>
        <mxCell id="z_qak5FmhzV_KOLMtLeO-74" style="line;strokeWidth=1;fillColor=none;align=left;verticalAlign=middle;spacingTop=-1;spacingLeft=3;spacingRight=3;rotatable=0;labelPosition=right;points=[];portConstraint=eastwest;strokeColor=inherit;" vertex="1" parent="z_qak5FmhzV_KOLMtLeO-69">
          <mxGeometry y="134.85714285714286" width="285" height="8" as="geometry" />
        </mxCell>
        <mxCell id="z_qak5FmhzV_KOLMtLeO-75" value="+addReport(report: Report): void" style="text;strokeColor=none;fillColor=none;align=left;verticalAlign=top;spacingLeft=4;spacingRight=4;overflow=hidden;rotatable=0;points=[[0,0.5],[1,0.5]];portConstraint=eastwest;" vertex="1" parent="z_qak5FmhzV_KOLMtLeO-69">
          <mxGeometry y="142.85714285714286" width="285" height="27" as="geometry" />
        </mxCell>
        <mxCell id="z_qak5FmhzV_KOLMtLeO-76" value="+removeReport(report: Report): void" style="text;strokeColor=none;fillColor=none;align=left;verticalAlign=top;spacingLeft=4;spacingRight=4;overflow=hidden;rotatable=0;points=[[0,0.5],[1,0.5]];portConstraint=eastwest;" vertex="1" parent="z_qak5FmhzV_KOLMtLeO-69">
          <mxGeometry y="169.85714285714286" width="285" height="27" as="geometry" />
        </mxCell>
        <mxCell id="z_qak5FmhzV_KOLMtLeO-77" value="1ExpenseCategory" style="swimlane;fontStyle=1;align=center;verticalAlign=top;childLayout=stackLayout;horizontal=1;startSize=25;horizontalStack=0;resizeParent=1;resizeParentMax=0;resizeLast=0;collapsible=0;marginBottom=0;" vertex="1" parent="WIyWlLk6GJQsqaUBKTNV-1">
          <mxGeometry x="279" y="1242" width="153" height="38" as="geometry" />
        </mxCell>
        <mxCell id="z_qak5FmhzV_KOLMtLeO-78" style="line;strokeWidth=1;fillColor=none;align=left;verticalAlign=middle;spacingTop=-1;spacingLeft=3;spacingRight=3;rotatable=0;labelPosition=right;points=[];portConstraint=eastwest;strokeColor=inherit;" vertex="1" parent="z_qak5FmhzV_KOLMtLeO-77">
          <mxGeometry y="25" width="153" height="13" as="geometry" />
        </mxCell>
        <mxCell id="z_qak5FmhzV_KOLMtLeO-79" value="1ReportType" style="swimlane;fontStyle=1;align=center;verticalAlign=top;childLayout=stackLayout;horizontal=1;startSize=25;horizontalStack=0;resizeParent=1;resizeParentMax=0;resizeLast=0;collapsible=0;marginBottom=0;" vertex="1" parent="WIyWlLk6GJQsqaUBKTNV-1">
          <mxGeometry x="1669" y="1242" width="111" height="38" as="geometry" />
        </mxCell>
        <mxCell id="z_qak5FmhzV_KOLMtLeO-80" style="line;strokeWidth=1;fillColor=none;align=left;verticalAlign=middle;spacingTop=-1;spacingLeft=3;spacingRight=3;rotatable=0;labelPosition=right;points=[];portConstraint=eastwest;strokeColor=inherit;" vertex="1" parent="z_qak5FmhzV_KOLMtLeO-79">
          <mxGeometry y="25" width="111" height="13" as="geometry" />
        </mxCell>
        <mxCell id="z_qak5FmhzV_KOLMtLeO-81" value="" style="curved=1;startArrow=none;endArrow=block;endSize=16;endFill=0;exitX=0.5006510416666666;exitY=0.9938271604938271;entryX=0.3070198007816417;entryY=0;rounded=0;" edge="1" parent="WIyWlLk6GJQsqaUBKTNV-1" source="z_qak5FmhzV_KOLMtLeO-26" target="z_qak5FmhzV_KOLMtLeO-14">
          <mxGeometry relative="1" as="geometry">
            <Array as="points">
              <mxPoint x="249" y="879" />
            </Array>
          </mxGeometry>
        </mxCell>
        <mxCell id="z_qak5FmhzV_KOLMtLeO-82" value="" style="curved=1;startArrow=none;endArrow=block;endSize=16;endFill=0;exitX=0.49946218297101447;exitY=1;entryX=0.6569251512981396;entryY=0;rounded=0;" edge="1" parent="WIyWlLk6GJQsqaUBKTNV-1" source="z_qak5FmhzV_KOLMtLeO-29" target="z_qak5FmhzV_KOLMtLeO-14">
          <mxGeometry relative="1" as="geometry">
            <Array as="points">
              <mxPoint x="443" y="879" />
            </Array>
          </mxGeometry>
        </mxCell>
        <mxCell id="z_qak5FmhzV_KOLMtLeO-83" value="" style="curved=1;startArrow=diamondThin;startSize=14;startFill=0;endArrow=none;exitX=0.5001845472440944;exitY=1;entryX=0.05752439978235757;entryY=0;rounded=0;" edge="1" parent="WIyWlLk6GJQsqaUBKTNV-1" source="z_qak5FmhzV_KOLMtLeO-63" target="z_qak5FmhzV_KOLMtLeO-51">
          <mxGeometry relative="1" as="geometry">
            <Array as="points">
              <mxPoint x="1634" y="879" />
            </Array>
          </mxGeometry>
        </mxCell>
        <mxCell id="z_qak5FmhzV_KOLMtLeO-84" value="*" style="edgeLabel;resizable=0;align=right;verticalAlign=top;" vertex="1" parent="z_qak5FmhzV_KOLMtLeO-83">
          <mxGeometry x="1" relative="1" as="geometry" />
        </mxCell>
        <mxCell id="z_qak5FmhzV_KOLMtLeO-85" value="" style="curved=1;startArrow=diamondThin;startSize=14;startFill=0;endArrow=none;exitX=0.498924365942029;exitY=1;entryX=0.9503778990682171;entryY=0;rounded=0;" edge="1" parent="WIyWlLk6GJQsqaUBKTNV-1" source="z_qak5FmhzV_KOLMtLeO-65" target="z_qak5FmhzV_KOLMtLeO-51">
          <mxGeometry relative="1" as="geometry">
            <Array as="points">
              <mxPoint x="1816" y="879" />
            </Array>
          </mxGeometry>
        </mxCell>
        <mxCell id="z_qak5FmhzV_KOLMtLeO-86" value="*" style="edgeLabel;resizable=0;align=right;verticalAlign=top;" vertex="1" parent="z_qak5FmhzV_KOLMtLeO-85">
          <mxGeometry x="1" relative="1" as="geometry" />
        </mxCell>
        <mxCell id="z_qak5FmhzV_KOLMtLeO-87" value="" style="curved=1;startArrow=diamondThin;startSize=14;startFill=0;endArrow=none;exitX=0.5000345685840708;exitY=1;entryX=1.0051185344827587;entryY=0.3082153982545608;rounded=0;" edge="1" parent="WIyWlLk6GJQsqaUBKTNV-1" source="z_qak5FmhzV_KOLMtLeO-67" target="z_qak5FmhzV_KOLMtLeO-51">
          <mxGeometry relative="1" as="geometry">
            <Array as="points">
              <mxPoint x="1992" y="879" />
            </Array>
          </mxGeometry>
        </mxCell>
        <mxCell id="z_qak5FmhzV_KOLMtLeO-88" value="*" style="edgeLabel;resizable=0;align=right;verticalAlign=top;" vertex="1" parent="z_qak5FmhzV_KOLMtLeO-87">
          <mxGeometry x="1" relative="1" as="geometry" />
        </mxCell>
        <mxCell id="z_qak5FmhzV_KOLMtLeO-89" value="" style="curved=1;startArrow=diamondThin;startSize=14;startFill=0;endArrow=none;exitX=-0.0011955804749340369;exitY=0.8529017943095656;entryX=1.0000496557203389;entryY=0.03255318490489185;rounded=0;" edge="1" parent="WIyWlLk6GJQsqaUBKTNV-1" source="z_qak5FmhzV_KOLMtLeO-0" target="z_qak5FmhzV_KOLMtLeO-14">
          <mxGeometry relative="1" as="geometry">
            <Array as="points">
              <mxPoint x="652" y="879" />
            </Array>
          </mxGeometry>
        </mxCell>
        <mxCell id="z_qak5FmhzV_KOLMtLeO-90" value="*" style="edgeLabel;resizable=0;align=right;verticalAlign=top;" vertex="1" parent="z_qak5FmhzV_KOLMtLeO-89">
          <mxGeometry x="1" relative="1" as="geometry" />
        </mxCell>
        <mxCell id="z_qak5FmhzV_KOLMtLeO-91" value="" style="curved=1;startArrow=diamondThin;startSize=14;startFill=0;endArrow=none;exitX=0.5000248278601694;exitY=1;entryX=0.5033445669934641;entryY=0;rounded=0;" edge="1" parent="WIyWlLk6GJQsqaUBKTNV-1" source="z_qak5FmhzV_KOLMtLeO-14" target="z_qak5FmhzV_KOLMtLeO-77">
          <mxGeometry relative="1" as="geometry">
            <Array as="points" />
          </mxGeometry>
        </mxCell>
        <mxCell id="z_qak5FmhzV_KOLMtLeO-92" value="" style="curved=1;startArrow=diamondThin;startSize=14;startFill=0;endArrow=none;exitX=0.5160954591990986;exitY=1;entryX=0.5000957120980092;entryY=0;rounded=0;" edge="1" parent="WIyWlLk6GJQsqaUBKTNV-1" source="z_qak5FmhzV_KOLMtLeO-0" target="z_qak5FmhzV_KOLMtLeO-39">
          <mxGeometry relative="1" as="geometry">
            <Array as="points">
              <mxPoint x="969" y="879" />
            </Array>
          </mxGeometry>
        </mxCell>
        <mxCell id="z_qak5FmhzV_KOLMtLeO-93" value="*" style="edgeLabel;resizable=0;align=right;verticalAlign=top;" vertex="1" parent="z_qak5FmhzV_KOLMtLeO-92">
          <mxGeometry x="1" relative="1" as="geometry" />
        </mxCell>
        <mxCell id="z_qak5FmhzV_KOLMtLeO-94" value="" style="curved=1;startArrow=diamondThin;startSize=14;startFill=0;endArrow=none;exitX=0.9994640501319261;exitY=0.8242529477246573;entryX=0.002783764367816092;entryY=0.3802562434554042;rounded=0;" edge="1" parent="WIyWlLk6GJQsqaUBKTNV-1" source="z_qak5FmhzV_KOLMtLeO-0" target="z_qak5FmhzV_KOLMtLeO-51">
          <mxGeometry relative="1" as="geometry">
            <Array as="points">
              <mxPoint x="1297" y="879" />
            </Array>
          </mxGeometry>
        </mxCell>
        <mxCell id="z_qak5FmhzV_KOLMtLeO-95" value="*" style="edgeLabel;resizable=0;align=right;verticalAlign=top;" vertex="1" parent="z_qak5FmhzV_KOLMtLeO-94">
          <mxGeometry x="1" relative="1" as="geometry" />
        </mxCell>
        <mxCell id="z_qak5FmhzV_KOLMtLeO-96" value="" style="curved=1;startArrow=diamondThin;startSize=14;startFill=0;endArrow=none;exitX=0.5039511494252874;exitY=1;entryX=0.5016891891891891;entryY=0;rounded=0;" edge="1" parent="WIyWlLk6GJQsqaUBKTNV-1" source="z_qak5FmhzV_KOLMtLeO-51" target="z_qak5FmhzV_KOLMtLeO-79">
          <mxGeometry relative="1" as="geometry">
            <Array as="points" />
          </mxGeometry>
        </mxCell>
      </root>
    </mxGraphModel>
  </diagram>
</mxfile>
